<svg width="127" height="32" viewBox="0 0 127 32" fill="none" xmlns="http://www.w3.org/2000/svg">
<g filter="url(#filter0_d_1_977)">
<path d="M4.32102 18V0.545454H8.53977V14.5739H15.8011V18H4.32102ZM24.0959 18.2472C22.7209 18.2472 21.5391 17.9659 20.5504 17.4034C19.5675 16.8352 18.8089 16.0455 18.2749 15.0341C17.7464 14.017 17.4822 12.8381 17.4822 11.4972C17.4822 10.1506 17.7464 8.97159 18.2749 7.96023C18.8089 6.94318 19.5675 6.15341 20.5504 5.59091C21.5391 5.02273 22.7209 4.73864 24.0959 4.73864C25.4709 4.73864 26.6499 5.02273 27.6328 5.59091C28.6214 6.15341 29.38 6.94318 29.9084 7.96023C30.4425 8.97159 30.7095 10.1506 30.7095 11.4972C30.7095 12.8381 30.4425 14.017 29.9084 15.0341C29.38 16.0455 28.6214 16.8352 27.6328 17.4034C26.6499 17.9659 25.4709 18.2472 24.0959 18.2472ZM24.1214 15.1023C24.6214 15.1023 25.0447 14.9489 25.3913 14.642C25.7379 14.3352 26.0021 13.9091 26.1839 13.3636C26.3714 12.8182 26.4652 12.1875 26.4652 11.4716C26.4652 10.7443 26.3714 10.108 26.1839 9.5625C26.0021 9.01705 25.7379 8.59091 25.3913 8.28409C25.0447 7.97727 24.6214 7.82386 24.1214 7.82386C23.6044 7.82386 23.1669 7.97727 22.8089 8.28409C22.4567 8.59091 22.1868 9.01705 21.9993 9.5625C21.8175 10.108 21.7266 10.7443 21.7266 11.4716C21.7266 12.1875 21.8175 12.8182 21.9993 13.3636C22.1868 13.9091 22.4567 14.3352 22.8089 14.642C23.1669 14.9489 23.6044 15.1023 24.1214 15.1023ZM38.9467 23.1818C37.7024 23.1818 36.6371 23.0085 35.7507 22.6619C34.8643 22.3153 34.1683 21.8409 33.6626 21.2386C33.157 20.6364 32.853 19.9545 32.7507 19.1932L36.6967 18.9716C36.7706 19.2386 36.907 19.4716 37.1058 19.6705C37.3104 19.8693 37.5746 20.0227 37.8984 20.1307C38.228 20.2386 38.6143 20.2926 39.0575 20.2926C39.7564 20.2926 40.3331 20.1222 40.7876 19.7812C41.2479 19.446 41.478 18.858 41.478 18.017V15.7159H41.3331C41.1683 16.1193 40.9183 16.4801 40.5831 16.7983C40.2479 17.1165 39.8303 17.3665 39.3303 17.5483C38.8359 17.7301 38.2678 17.821 37.6257 17.821C36.6712 17.821 35.7962 17.5994 35.0007 17.1562C34.2109 16.7074 33.5774 16.0142 33.1001 15.0767C32.6286 14.1335 32.3928 12.9205 32.3928 11.4375C32.3928 9.90909 32.6371 8.65057 33.1257 7.66193C33.6143 6.66761 34.2536 5.93182 35.0433 5.45454C35.8388 4.97727 36.6939 4.73864 37.6087 4.73864C38.2962 4.73864 38.8842 4.85795 39.3729 5.09659C39.8672 5.32955 40.2734 5.63068 40.5916 6C40.9098 6.36932 41.1513 6.75284 41.3161 7.15057H41.4354V4.90909H45.5859V18.0511C45.5859 19.1591 45.3075 20.0938 44.7507 20.8551C44.1939 21.6165 43.4155 22.1932 42.4155 22.5852C41.4155 22.983 40.2592 23.1818 38.9467 23.1818ZM39.0746 14.7869C39.5803 14.7869 40.0121 14.6534 40.37 14.3864C40.728 14.1193 41.0036 13.7358 41.1967 13.2358C41.3899 12.7358 41.4865 12.1364 41.4865 11.4375C41.4865 10.7273 41.3899 10.1165 41.1967 9.60511C41.0092 9.08807 40.7337 8.69034 40.37 8.41193C40.0121 8.13352 39.5803 7.99432 39.0746 7.99432C38.5575 7.99432 38.12 8.13636 37.7621 8.42045C37.4041 8.70455 37.1314 9.10511 36.9439 9.62216C36.7621 10.1335 36.6712 10.7386 36.6712 11.4375C36.6712 12.1364 36.7649 12.7358 36.9524 13.2358C37.1399 13.7358 37.4098 14.1193 37.7621 14.3864C38.12 14.6534 38.5575 14.7869 39.0746 14.7869ZM54.3537 18.2472C52.9787 18.2472 51.7969 17.9659 50.8082 17.4034C49.8253 16.8352 49.0668 16.0455 48.5327 15.0341C48.0043 14.017 47.7401 12.8381 47.7401 11.4972C47.7401 10.1506 48.0043 8.97159 48.5327 7.96023C49.0668 6.94318 49.8253 6.15341 50.8082 5.59091C51.7969 5.02273 52.9787 4.73864 54.3537 4.73864C55.7287 4.73864 56.9077 5.02273 57.8906 5.59091C58.8793 6.15341 59.6378 6.94318 60.1662 7.96023C60.7003 8.97159 60.9673 10.1506 60.9673 11.4972C60.9673 12.8381 60.7003 14.017 60.1662 15.0341C59.6378 16.0455 58.8793 16.8352 57.8906 17.4034C56.9077 17.9659 55.7287 18.2472 54.3537 18.2472ZM54.3793 15.1023C54.8793 15.1023 55.3026 14.9489 55.6491 14.642C55.9957 14.3352 56.2599 13.9091 56.4418 13.3636C56.6293 12.8182 56.723 12.1875 56.723 11.4716C56.723 10.7443 56.6293 10.108 56.4418 9.5625C56.2599 9.01705 55.9957 8.59091 55.6491 8.28409C55.3026 7.97727 54.8793 7.82386 54.3793 7.82386C53.8622 7.82386 53.4247 7.97727 53.0668 8.28409C52.7145 8.59091 52.4446 9.01705 52.2571 9.5625C52.0753 10.108 51.9844 10.7443 51.9844 11.4716C51.9844 12.1875 52.0753 12.8182 52.2571 13.3636C52.4446 13.9091 52.7145 14.3352 53.0668 14.642C53.4247 14.9489 53.8622 15.1023 54.3793 15.1023ZM68.2585 18V0.545454H72.4773V7.55114H79.3551V0.545454H83.5653V18H79.3551V10.9858H72.4773V18H68.2585ZM92.331 18.2472C90.9616 18.2472 89.7798 17.9773 88.7855 17.4375C87.7969 16.892 87.0355 16.1165 86.5014 15.1108C85.973 14.0994 85.7088 12.8977 85.7088 11.5057C85.7088 10.1534 85.9759 8.97159 86.5099 7.96023C87.044 6.94318 87.7969 6.15341 88.7685 5.59091C89.7401 5.02273 90.8849 4.73864 92.2031 4.73864C93.1349 4.73864 93.9872 4.88352 94.7599 5.17329C95.5327 5.46307 96.2003 5.89205 96.7628 6.46023C97.3253 7.02841 97.7628 7.73011 98.0753 8.56534C98.3878 9.39489 98.544 10.3466 98.544 11.4205V12.4602H87.1662V10.0398H94.6662C94.6605 9.59659 94.5554 9.2017 94.3509 8.85511C94.1463 8.50852 93.8651 8.23864 93.5071 8.04545C93.1548 7.84659 92.7486 7.74716 92.2884 7.74716C91.8224 7.74716 91.4048 7.85227 91.0355 8.0625C90.6662 8.26705 90.3736 8.5483 90.1577 8.90625C89.9418 9.25852 89.8281 9.65909 89.8168 10.108V12.571C89.8168 13.1051 89.9219 13.5739 90.1321 13.9773C90.3423 14.375 90.6406 14.6847 91.027 14.9062C91.4134 15.1278 91.8736 15.2386 92.4077 15.2386C92.777 15.2386 93.1122 15.1875 93.4134 15.0852C93.7145 14.983 93.973 14.8324 94.1889 14.6335C94.4048 14.4347 94.5668 14.1903 94.6747 13.9006L98.5014 14.0114C98.3423 14.8693 97.9929 15.6165 97.4531 16.2528C96.919 16.8835 96.2173 17.375 95.348 17.7273C94.4787 18.0739 93.473 18.2472 92.331 18.2472ZM100.673 18V4.90909H104.721V7.29545H104.857C105.096 6.43182 105.485 5.78977 106.025 5.36932C106.565 4.94318 107.192 4.73011 107.908 4.73011C108.102 4.73011 108.3 4.74432 108.505 4.77273C108.71 4.79545 108.9 4.83239 109.076 4.88352V8.50568C108.877 8.4375 108.616 8.38352 108.292 8.34375C107.974 8.30398 107.69 8.28409 107.44 8.28409C106.945 8.28409 106.499 8.39489 106.102 8.61648C105.71 8.83239 105.4 9.13636 105.173 9.52841C104.951 9.91477 104.84 10.3693 104.84 10.892V18H100.673ZM116.214 18.2472C114.844 18.2472 113.663 17.9773 112.668 17.4375C111.68 16.892 110.918 16.1165 110.384 15.1108C109.856 14.0994 109.592 12.8977 109.592 11.5057C109.592 10.1534 109.859 8.97159 110.393 7.96023C110.927 6.94318 111.68 6.15341 112.651 5.59091C113.623 5.02273 114.768 4.73864 116.086 4.73864C117.018 4.73864 117.87 4.88352 118.643 5.17329C119.415 5.46307 120.083 5.89205 120.646 6.46023C121.208 7.02841 121.646 7.73011 121.958 8.56534C122.271 9.39489 122.427 10.3466 122.427 11.4205V12.4602H111.049V10.0398H118.549C118.543 9.59659 118.438 9.2017 118.234 8.85511C118.029 8.50852 117.748 8.23864 117.39 8.04545C117.038 7.84659 116.631 7.74716 116.171 7.74716C115.705 7.74716 115.288 7.85227 114.918 8.0625C114.549 8.26705 114.256 8.5483 114.04 8.90625C113.825 9.25852 113.711 9.65909 113.7 10.108V12.571C113.7 13.1051 113.805 13.5739 114.015 13.9773C114.225 14.375 114.523 14.6847 114.91 14.9062C115.296 15.1278 115.756 15.2386 116.29 15.2386C116.66 15.2386 116.995 15.1875 117.296 15.0852C117.597 14.983 117.856 14.8324 118.072 14.6335C118.288 14.4347 118.45 14.1903 118.558 13.9006L122.384 14.0114C122.225 14.8693 121.876 15.6165 121.336 16.2528C120.802 16.8835 120.1 17.375 119.231 17.7273C118.362 18.0739 117.356 18.2472 116.214 18.2472Z" fill="black"/>
</g>
<defs>
<filter id="filter0_d_1_977" x="0.321045" y="0.545471" width="126.106" height="30.6364" filterUnits="userSpaceOnUse" color-interpolation-filters="sRGB">
<feFlood flood-opacity="0" result="BackgroundImageFix"/>
<feColorMatrix in="SourceAlpha" type="matrix" values="0 0 0 0 0 0 0 0 0 0 0 0 0 0 0 0 0 0 127 0" result="hardAlpha"/>
<feOffset dy="4"/>
<feGaussianBlur stdDeviation="2"/>
<feComposite in2="hardAlpha" operator="out"/>
<feColorMatrix type="matrix" values="0 0 0 0 0 0 0 0 0 0 0 0 0 0 0 0 0 0 0.25 0"/>
<feBlend mode="normal" in2="BackgroundImageFix" result="effect1_dropShadow_1_977"/>
<feBlend mode="normal" in="SourceGraphic" in2="effect1_dropShadow_1_977" result="shape"/>
</filter>
</defs>
</svg>
